<svg xmlns="http://www.w3.org/2000/svg" viewBox="0 0 64 64" fill="none">
  <path d="M21.5 13.5c-5.2 0-9.2 4.1-9.2 9.4 0 4.7 3.4 8.6 8.1 9.2l5.2.7c3 .4 5.6-1.9 5.6-4.9v-5.2c0-5.2-4.2-9.2-9.7-9.2Z" stroke="#000" stroke-width="3" stroke-linejoin="round"/>
  <path d="M42.5 13.5c5.2 0 9.2 4.1 9.2 9.4 0 4.7-3.4 8.6-8.1 9.2l-5.2.7c-3 .4-5.6-1.9-5.6-4.9v-5.2c0-5.2 4.2-9.2 9.7-9.2Z" stroke="#000" stroke-width="3" stroke-linejoin="round"/>
  <path d="M20.7 20.7c-1.6.3-2.8 1.6-2.8 3.3 0 1.9 1.5 3.4 3.4 3.4h3.8M43.3 20.7c1.6.3 2.8 1.6 2.8 3.3 0 1.9-1.5 3.4-3.4 3.4h-3.8" stroke="#000" stroke-width="2.2" stroke-linecap="round" stroke-linejoin="round" opacity=".66"/>
  <path d="M26.8 32.4v14.4c0 3.4-2.7 6.2-6.1 6.2h-1.2M37.2 32.4v14.4c0 3.4 2.7 6.2 6.1 6.2h1.2" stroke="#000" stroke-width="3" stroke-linecap="round" stroke-linejoin="round"/>
</svg>
